<?xml version="1.0" encoding="UTF-8" standalone="no"?>
<!-- Created with Inkscape (http://www.inkscape.org/) -->

<svg
   xmlns:dc="http://purl.org/dc/elements/1.1/"
   xmlns:cc="http://creativecommons.org/ns#"
   xmlns:rdf="http://www.w3.org/1999/02/22-rdf-syntax-ns#"
   xmlns:svg="http://www.w3.org/2000/svg"
   xmlns="http://www.w3.org/2000/svg"
   xmlns:sodipodi="http://sodipodi.sourceforge.net/DTD/sodipodi-0.dtd"
   xmlns:inkscape="http://www.inkscape.org/namespaces/inkscape"
   width="1443.9688"
   height="1040.7188"
   id="svg1352"
   sodipodi:version="0.32"
   inkscape:version="0.48.1 r9760"
   version="1.0"
   sodipodi:docname="LaTeX_diagram.svg">
  <defs
     id="defs1354">
    <marker
       inkscape:stockid="Arrow1Lend"
       orient="auto"
       refY="0"
       refX="0"
       id="Arrow1Lend"
       style="overflow:visible">
      <path
         id="path4086"
         d="M 0,0 5,-5 -12.5,0 5,5 0,0 z"
         style="fill-rule:evenodd;stroke:black;stroke-width:1pt;marker-start:none"
         transform="matrix(-0.8,0,0,-0.8,-10,0)"
         inkscape:connector-curvature="0" />
    </marker>
    <marker
       inkscape:stockid="Arrow1Lstart"
       orient="auto"
       refY="0"
       refX="0"
       id="Arrow1Lstart"
       style="overflow:visible">
      <path
         id="path4083"
         d="M 0,0 5,-5 -12.5,0 5,5 0,0 z"
         style="fill-rule:evenodd;stroke:black;stroke-width:1pt;marker-start:none"
         transform="matrix(0.8,0,0,0.8,10,0)"
         inkscape:connector-curvature="0" />
    </marker>
  </defs>
  <sodipodi:namedview
     id="base"
     pagecolor="#ffffff"
     bordercolor="#666666"
     borderopacity="1.0"
     inkscape:pageopacity="0.0"
     inkscape:pageshadow="2"
     inkscape:zoom="0.6440716"
     inkscape:cx="555.86107"
     inkscape:cy="520.35765"
     inkscape:document-units="px"
     inkscape:current-layer="layer1"
     inkscape:window-width="1680"
     inkscape:window-height="951"
     inkscape:window-x="0"
     inkscape:window-y="33"
     showgrid="false"
     inkscape:window-maximized="1"
     inkscape:snap-bbox="true"
     inkscape:snap-bbox-edge-midpoints="true"
     inkscape:bbox-nodes="true"
     inkscape:bbox-paths="true"
     inkscape:snap-bbox-midpoints="true"
     inkscape:object-paths="true"
     showguides="true"
     inkscape:guide-bbox="true"
     inkscape:snap-global="true"
     inkscape:snap-to-guides="true"
     inkscape:snap-grids="true"
     fit-margin-top="0"
     fit-margin-left="0"
     fit-margin-right="0"
     fit-margin-bottom="0">
    <inkscape:grid
       type="xygrid"
       id="grid7124"
       empspacing="5"
       visible="true"
       enabled="true"
       snapvisiblegridlinesonly="true" />
  </sodipodi:namedview>
  <metadata
     id="metadata1357">
    <rdf:RDF>
      <cc:Work
         rdf:about="">
        <dc:format>image/svg+xml</dc:format>
        <dc:type
           rdf:resource="http://purl.org/dc/dcmitype/StillImage" />
      </cc:Work>
    </rdf:RDF>
  </metadata>
  <g
     inkscape:label="Layer 1"
     inkscape:groupmode="layer"
     id="layer1"
     transform="translate(2.21875,-32.96875)">
    <rect
       style="color:black;fill:#e3e3e3;fill-opacity:1;stroke:#707070;stroke-width:3.29999995;stroke-linecap:round;stroke-linejoin:miter;stroke-miterlimit:4;stroke-opacity:0.91044778;stroke-dasharray:none;stroke-dashoffset:0;marker:none;visibility:visible;display:inline;overflow:visible;enable-background:accumulate"
       id="rect7106"
       width="1440.672"
       height="324.27148"
       x="-0.57965487"
       y="747.77795" />
    <path
       style="fill:none;stroke:black;stroke-width:4;stroke-linecap:butt;stroke-linejoin:miter;stroke-miterlimit:4;stroke-opacity:1;stroke-dasharray:none;marker-start:url(#Arrow1Lstart)"
       d="m 123.26289,837.51371 0.9897,-656.69602 498.80711,0.0116"
       id="path11123"
       inkscape:connector-curvature="0"
       sodipodi:nodetypes="ccc" />
    <path
       style="fill:none;stroke:black;stroke-width:4;stroke-linecap:butt;stroke-linejoin:miter;stroke-miterlimit:4;stroke-opacity:1;stroke-dasharray:none;marker-start:url(#Arrow1Lstart);marker-end:url(#Arrow1Lend)"
       d="m 252.20539,879.86301 312.28289,0.5862"
       id="path3310"
       inkscape:connector-curvature="0"
       sodipodi:nodetypes="cc" />
    <rect
       style="color:black;fill:#d0d0d0;fill-opacity:0.5261194;stroke:#707070;stroke-width:3.29999995;stroke-linecap:round;stroke-linejoin:miter;stroke-miterlimit:4;stroke-opacity:0.91044778;stroke-dasharray:none;stroke-dashoffset:0;marker:none;visibility:visible;display:inline;overflow:visible;enable-background:accumulate"
       id="rect7104"
       width="472.52328"
       height="600.43353"
       x="504.49658"
       y="34.610268" />
    <g
       id="g3114"
       transform="translate(154.40999,-97.127991)">
      <rect
         y="498.07196"
         x="442.70547"
         height="137.75929"
         width="287.60275"
         id="rect2239"
         style="fill:white;fill-opacity:1;stroke:black;stroke-width:3.38356161;stroke-linecap:round;stroke-linejoin:round;stroke-miterlimit:4;stroke-opacity:1;stroke-dasharray:none;stroke-dashoffset:0"
         ry="25.330837" />
      <g
         style="fill:red;fill-opacity:1"
         transform="matrix(4.39182,0,0,4.39182,456.811,518.353)"
         id="g12">
        <path
           id="path14"
           d="m 12.16,11.125 -0.445,0 c -0.196,2.473 -0.516,5.668 -4.74599,5.668 l -2.29701,0 c -0.98899,0 -1.035,-0.121 -1.035,-0.969 l 0,-13.582 c 0,-0.89398 0.04601,-1.14398 1.918,-1.14398 l 0.539,0 0,-0.59802 C 5.078,0.546997 3.89,0.546997 2.875,0.546997 2.109,0.546997 0.719002,0.546997 0,0.5 l 0,0.59802 c 1.75401,0 2.035,0 2.035,1.11695 l 0,13.45703 c 0,1.117 -0.277,1.117 -2.035,1.117 l 0,0.598 11.574,0"
           style="fill:red;fill-opacity:1;stroke:none"
           inkscape:connector-curvature="0" />
        <path
           id="path16"
           d="M 12.328,0.328003 C 12.226,0.059021 12.183,0 11.98,0 11.777,0 11.734,0.059021 11.633,0.328003 L 7.254,12.746 C 6.86301,13.864 6.035,14.09 5.312,14.09 l 0,0.5 c 0.37101,-0.039 1.196,-0.039 1.59001,-0.039 0.51599,0 1.33999,0 1.836,0.039 l 0,-0.5 C 7.769,14.051 7.625,13.379 7.625,13.129 c 0,-0.187 0.039,-0.293 0.082,-0.418 l 1.09401,-3.11701 5.40999,0 1.238,3.55501 c 0.102,0.25 0.102,0.293 0.102,0.375 0,0.562 -0.887,0.562 -1.278,0.562 l 0,0.5 c 0.598,-0.039 1.672,-0.039 2.313,-0.039 0.535,0 1.566,0 2.062,0.039 l 0,-0.5 c -1.093,0 -1.465,0 -1.734,-0.765 L 12.328,0.328003 z M 11.5,1.96899 l 2.519,7.125 -5.039,0"
           style="fill:red;fill-opacity:1;stroke:none"
           inkscape:connector-curvature="0" />
        <path
           id="path18"
           d="m 31.246,0.539001 -14.301,0 -0.418,5.476989 0.446,0 c 0.32,-4.10199 0.671,-4.82001 4.511,-4.82001 0.446,0 1.168,0 1.367,0 0.473,0.07404 0.473,0.375 0.473,0.94501 l 0,13.48001 c 0,0.895 -0.074,1.168 -2.16,1.168 l -0.703,0 0,0.598 c 1.187,-0.023 2.426,-0.047 3.64,-0.047 1.211,0 2.454,0.024 3.641,0.047 l 0,-0.598 -0.691,0 c -2.055,0 -2.129,-0.273 -2.129,-1.168 l 0,-13.48001 c 0,-0.547 0,-0.84399 0.445,-0.94501 0.195,0 0.914,0 1.359,0 3.79,0 4.161,0.71399 4.481,4.82001 l 0.445,0"
           style="fill:red;fill-opacity:1;stroke:none"
           inkscape:connector-curvature="0" />
        <path
           id="path20"
           d="m 43.57,16.524 -0.445,0 c -0.543,3.672 -0.863,5.668 -5.219,5.668 l -3.437,0 c -0.989,0 -1.036,-0.125 -1.036,-0.977 l 0,-6.922 2.336,0 c 2.336,0 2.559,0.856 2.559,2.946 l 0.398,0 0,-6.442 -0.398,0 c 0,2.055 -0.223,2.895 -2.559,2.895 l -2.336,0 0,-6.13701 c 0,-0.836 0.047,-0.961 1.036,-0.961 l 3.386,0 c 3.832,0 4.278,1.52301 4.625,4.79701 l 0.446,0 -0.594,-5.477 -12.539,0 0,0.67999 c 1.754,0 2.035,0 2.035,1.11298 l 0,13.36403 c 0,1.113 -0.277,1.113 -2.035,1.113 l 0,0.598 12.887,0"
           style="fill:red;fill-opacity:1;stroke:none"
           inkscape:connector-curvature="0" />
        <path
           id="path22"
           d="m 50.246,8.01599 3.664,-5.297 c 0.367,-0.52002 1.113,-1.59002 3.145,-1.617 l 0,-0.598023 c -0.567,0.046997 -1.508,0.046997 -2.102,0.046997 -0.816,0 -1.832,0 -2.449,-0.046997 l 0,0.598023 c 0.793,0.07397 0.988,0.57001 0.988,0.96899 0,0.29602 -0.121,0.49604 -0.297,0.74201 l -3.269,4.742 -3.664,-5.36297 C 46.09,1.922 46.066,1.84399 46.066,1.77002 c 0,-0.22302 0.27,-0.64502 1.09,-0.66803 l 0,-0.598023 c -0.793,0.046997 -2.004,0.046997 -2.82,0.046997 -0.641,0 -1.879,0 -2.477,-0.046997 l 0,0.598023 c 1.36,0 1.805,0.05103 2.352,0.82001 L 48.988,8.93799 44.68,15.231 c -1.063,1.539 -2.672,1.566 -3.145,1.566 l 0,0.598 c 0.566,-0.047 1.508,-0.047 2.102,-0.047 0.668,0 1.832,0 2.449,0.047 l 0,-0.598 c -0.766,-0.074 -0.988,-0.57 -0.988,-0.969 0,-0.32 0.121,-0.496 0.246,-0.672 l 3.961,-5.781 4.308,6.332 c 0.195,0.274 0.195,0.348 0.195,0.422 0,0.195 -0.222,0.621 -1.089,0.672 l 0,0.598 c 0.793,-0.047 2.004,-0.047 2.82,-0.047 0.641,0 1.879,0 2.48,0.047 l 0,-0.598 c -1.586,0 -1.836,-0.121 -2.328,-0.82"
           style="fill:red;fill-opacity:1;stroke:none"
           inkscape:connector-curvature="0" />
      </g>
    </g>
    <g
       id="g4879"
       transform="translate(158.77399,-99.148291)">
      <rect
         ry="28.310934"
         y="218.3802"
         x="464.28571"
         height="130"
         width="235.71428"
         id="rect4004"
         style="fill:white;fill-opacity:1;stroke:black;stroke-width:4;stroke-linecap:round;stroke-linejoin:round;stroke-miterlimit:4;stroke-opacity:1;stroke-dasharray:none;stroke-dashoffset:0" />
      <g
         style="fill:red;fill-opacity:1;stroke:none"
         transform="matrix(4.62697,0,0,4.62697,485.497,233.458)"
         id="g3123">
        <path
           id="path3125"
           d="m 14.718,0.0350342 -14.300001,0 L 0,5.51202 l 0.445,0 C 0.764999,1.41003 1.117,0.692017 4.957,0.692017 c 0.445,0 1.168,0 1.367,0 0.473,0.074035 0.473,0.375003 0.473,0.945003 l 0,13.47998 c 0,0.895 -0.075,1.168 -2.161,1.168 l -0.703,0 0,0.5981 C 5.121,16.86 6.359,16.836 7.574,16.836 c 1.211,0 2.453,0.024 3.64,0.0471 l 0,-0.5981 -0.691,0 c -2.05501,0 -2.129,-0.273 -2.129,-1.168 l 0,-13.47998 c 0,-0.54699 0,-0.84399 0.446,-0.945003 0.195,0 0.91401,0 1.359,0 3.789,0 4.16,0.713993 4.48,4.820003 l 0.446,0"
           style="fill:red;fill-opacity:1;stroke:none"
           inkscape:connector-curvature="0" />
        <path
           id="path3127"
           d="m 27.144,16.02 -0.445,0 c -0.543,3.672 -0.863,5.668 -5.219,5.668 l -3.437,0 c -0.989,0 -1.036,-0.125 -1.036,-0.977 l 0,-6.922 2.336,0 c 2.336,0 2.559,0.856 2.559,2.946 l 0.398,0 0,-6.442 -0.398,0 c 0,2.055 -0.223,2.895 -2.559,2.895 l -2.336,0 0,-6.13697 c 0,-0.836 0.047,-0.961 1.036,-0.961 l 3.386,0 c 3.832,0 4.278,1.52301 4.625,4.79697 l 0.446,0 -0.594,-5.47697 -12.539,0 0,0.68 c 1.754,0 2.035,0 2.035,1.11297 l 0,13.364 c 0,1.1131 -0.277,1.1131 -2.035,1.1131 l 0,0.5979 12.887,0"
           style="fill:red;fill-opacity:1;stroke:none"
           inkscape:connector-curvature="0" />
        <path
           id="path3129"
           d="M 33.82,7.51202 37.484,2.21503 C 37.851,1.69501 38.597,0.625 40.629,0.598022 L 40.629,0 c -0.567,0.0469971 -1.508,0.0469971 -2.102,0.0469971 -0.816,0 -1.832,0 -2.449,-0.0469971 l 0,0.598022 c 0.793,0.073975 0.988,0.570008 0.988,0.968998 0,0.29602 -0.121,0.49603 -0.297,0.742 L 33.5,7.05103 29.836,1.68805 C 29.664,1.41803 29.64,1.34003 29.64,1.26605 c 0,-0.22302 0.27,-0.645017 1.09,-0.668028 L 30.73,0 c -0.793,0.0469971 -2.004,0.0469971 -2.82,0.0469971 -0.641,0 -1.879,0 -2.477,-0.0469971 l 0,0.598022 c 1.36,0 1.805,0.051026 2.352,0.820008 l 4.777,7.01599 -4.308,6.29308 c -1.063,1.539 -2.672,1.5659 -3.145,1.5659 l 0,0.5981 c 0.566,-0.047 1.508,-0.047 2.102,-0.047 0.668,0 1.832,0 2.449,0.047 l 0,-0.5981 c -0.766,-0.0739 -0.988,-0.57 -0.988,-0.969 0,-0.32 0.121,-0.496 0.246,-0.672 l 3.961,-5.78097 4.308,6.33197 c 0.195,0.2741 0.195,0.348 0.195,0.422 0,0.195 -0.222,0.621 -1.089,0.672 l 0,0.598 c 0.793,-0.047 2.004,-0.047 2.82,-0.047 0.641,0 1.879,0 2.48,0.047 l 0,-0.598 c -1.586,0 -1.836,-0.121 -2.328,-0.8199"
           style="fill:red;fill-opacity:1;stroke:none"
           inkscape:connector-curvature="0" />
      </g>
    </g>
    <path
       style="fill:none;stroke:black;stroke-width:4;stroke-linecap:butt;stroke-linejoin:miter;stroke-miterlimit:4;stroke-opacity:1;stroke-dasharray:none;marker-end:url(#Arrow1Lend)"
       d="m 1179.7718,879.0027 -262.42637,2.06023"
       id="path5262"
       inkscape:connector-curvature="0"
       sodipodi:nodetypes="cc" />
    <g
       id="g6640"
       transform="translate(148.77399,796.27638)">
      <rect
         y="41.237339"
         x="415.71429"
         height="87.14286"
         width="352.85715"
         id="rect5765"
         style="fill:white;fill-opacity:1;stroke:black;stroke-width:4;stroke-linecap:round;stroke-linejoin:round;stroke-miterlimit:4;stroke-opacity:1;stroke-dasharray:none;stroke-dashoffset:0"
         ry="19.37064" />
      <text
         sodipodi:linespacing="125%"
         id="text4886"
         y="99.7658"
         x="590.83038"
         style="font-size:40px;font-style:normal;font-variant:normal;font-weight:bold;font-stretch:normal;text-align:center;line-height:125%;writing-mode:lr-tb;text-anchor:middle;fill:red;fill-opacity:1;stroke:none;font-family:Serif"
         xml:space="preserve"><tspan
           style="font-size:56px;font-style:normal;font-variant:normal;font-weight:normal;font-stretch:normal;text-align:center;line-height:100%;writing-mode:lr-tb;text-anchor:middle;fill:red;fill-opacity:1;font-family:Serif"
           y="99.7658"
           x="590.83038"
           id="tspan4888"
           sodipodi:role="line">PostScript</tspan></text>
    </g>
    <path
       style="fill:none;stroke:black;stroke-width:4;stroke-linecap:round;stroke-linejoin:round;stroke-miterlimit:4;stroke-opacity:1;stroke-dasharray:none;marker-start:none;marker-end:url(#Arrow1Lend)"
       d="m 595.42368,469.82362 -380.27279,0 1.1513,367.69009"
       id="path10248"
       inkscape:connector-curvature="0"
       sodipodi:nodetypes="ccc" />
    <path
       style="fill:none;stroke:black;stroke-width:4;stroke-linecap:round;stroke-linejoin:round;stroke-miterlimit:4;stroke-opacity:1;stroke-dasharray:none;marker-start:url(#Arrow1Lstart)"
       d="m 165.57269,918.94229 0.4298,117.38981 1101.94121,0.4114 0.217,-117.80121"
       id="path15502"
       inkscape:connector-curvature="0"
       sodipodi:nodetypes="cccc" />
    <g
       id="g9276"
       transform="translate(-3.5089094,484.84779)">
      <rect
         y="352.66592"
         x="88.571426"
         height="81.428574"
         width="167.14285"
         id="rect8399"
         style="fill:white;fill-opacity:1;stroke:black;stroke-width:4;stroke-linecap:round;stroke-linejoin:round;stroke-miterlimit:4;stroke-opacity:1;stroke-dasharray:none;stroke-dashoffset:0"
         ry="19.37064" />
      <text
         sodipodi:linespacing="125%"
         id="text6645"
         y="413.79233"
         x="171.76004"
         style="font-size:64px;font-style:normal;font-variant:normal;font-weight:normal;font-stretch:normal;text-align:center;line-height:125%;writing-mode:lr-tb;text-anchor:middle;fill:red;fill-opacity:1;stroke:none;font-family:Serif"
         xml:space="preserve"><tspan
           y="413.79233"
           x="171.76004"
           id="tspan6647"
           sodipodi:role="line"
           style="font-size:56px">PDF</tspan></text>
    </g>
    <path
       style="fill:none;stroke:black;stroke-width:4;stroke-linecap:round;stroke-linejoin:round;stroke-miterlimit:4;stroke-opacity:1;stroke-dasharray:none;marker-start:url(#Arrow1Lstart);marker-end:none"
       d="m 1309.5195,837.51371 2.2737,-656.69602 -453.01923,0.48895"
       id="path12877"
       inkscape:connector-curvature="0"
       sodipodi:nodetypes="ccc" />
    <path
       style="fill:none;stroke:black;stroke-width:4;stroke-linecap:round;stroke-linejoin:round;stroke-miterlimit:4;stroke-opacity:1;stroke-dasharray:none;marker-start:url(#Arrow1Lstart);marker-end:none"
       d="m 1223.4061,837.51371 2.3446,-367.69009 -339.59441,0"
       id="path12002"
       sodipodi:nodetypes="ccc"
       inkscape:connector-curvature="0" />
    <g
       id="g9281"
       transform="translate(422.62899,520.09599)">
      <rect
         y="317.41772"
         x="757.14282"
         height="81.428574"
         width="167.14285"
         id="rect9274"
         style="fill:white;fill-opacity:1;stroke:black;stroke-width:4;stroke-linecap:round;stroke-linejoin:round;stroke-miterlimit:4;stroke-opacity:1;stroke-dasharray:none;stroke-dashoffset:0"
         ry="22.350739" />
      <text
         sodipodi:linespacing="125%"
         id="text6649"
         y="378.54413"
         x="840.70056"
         style="font-size:64px;font-style:normal;font-variant:normal;font-weight:normal;font-stretch:normal;text-align:center;line-height:125%;writing-mode:lr-tb;text-anchor:middle;fill:red;fill-opacity:1;stroke:none;font-family:Serif"
         xml:space="preserve"><tspan
           y="378.54413"
           x="840.70056"
           id="tspan6651"
           sodipodi:role="line"
           style="font-size:56px">DVI</tspan></text>
    </g>
    <text
       xml:space="preserve"
       style="font-size:64px;font-style:normal;font-variant:normal;font-weight:normal;font-stretch:normal;text-align:center;line-height:100%;writing-mode:lr-tb;text-anchor:middle;fill:blue;fill-opacity:1;stroke:none;font-family:Serif"
       x="372.48846"
       y="455.60315"
       id="text9343"
       sodipodi:linespacing="100%"><tspan
         sodipodi:role="line"
         id="tspan9345"
         x="372.48846"
         y="455.60315"
         style="font-size:40px;font-style:normal;font-variant:normal;font-weight:normal;font-stretch:normal;text-align:center;line-height:100%;writing-mode:lr-tb;text-anchor:middle;fill:blue;fill-opacity:1;font-family:Serif">pdflatex</tspan></text>
    <text
       xml:space="preserve"
       style="font-size:40px;font-style:normal;font-variant:normal;font-weight:normal;font-stretch:normal;text-align:center;line-height:100%;writing-mode:lr-tb;text-anchor:middle;fill:blue;fill-opacity:1;stroke:none;font-family:Serif"
       x="1108.3248"
       y="457.17078"
       id="text9347"
       sodipodi:linespacing="100%"><tspan
         sodipodi:role="line"
         id="tspan9349"
         x="1108.3248"
         y="457.17078">latex</tspan></text>
    <text
       xml:space="preserve"
       style="font-size:40px;font-style:normal;font-variant:normal;font-weight:normal;font-stretch:normal;text-align:center;line-height:100%;writing-mode:lr-tb;text-anchor:middle;fill:blue;fill-opacity:1;stroke:none;font-family:Serif"
       x="1142.1055"
       y="167.44006"
       id="text9351"
       sodipodi:linespacing="100%"><tspan
         sodipodi:role="line"
         id="tspan9353"
         x="1142.1055"
         y="167.44006">tex</tspan></text>
    <text
       xml:space="preserve"
       style="font-size:40px;font-style:normal;font-variant:normal;font-weight:normal;font-stretch:normal;text-align:center;line-height:100%;writing-mode:lr-tb;text-anchor:middle;fill:blue;fill-opacity:1;stroke:none;font-family:Serif"
       x="381.6347"
       y="162.54373"
       id="text9355"
       sodipodi:linespacing="100%"><tspan
         sodipodi:role="line"
         id="tspan9357"
         x="381.6347"
         y="162.54373">pdftex</tspan></text>
    <text
       xml:space="preserve"
       style="font-size:40px;font-style:normal;font-variant:normal;font-weight:normal;font-stretch:normal;text-align:center;line-height:100%;writing-mode:lr-tb;text-anchor:middle;fill:blue;fill-opacity:1;stroke:none;font-family:Serif"
       x="1064.1661"
       y="862.58948"
       id="text9359"
       sodipodi:linespacing="100%"><tspan
         sodipodi:role="line"
         id="tspan9361"
         x="1064.1661"
         y="862.58948">dvi2ps</tspan></text>
    <text
       xml:space="preserve"
       style="font-size:40px;font-style:normal;font-variant:normal;font-weight:normal;font-stretch:normal;text-align:center;line-height:100%;writing-mode:lr-tb;text-anchor:middle;fill:blue;fill-opacity:1;stroke:none;font-family:Serif"
       x="408.37762"
       y="860.60437"
       id="text9363"
       sodipodi:linespacing="100%"><tspan
         sodipodi:role="line"
         id="tspan9365"
         x="408.37762"
         y="860.60437">ps2pdf</tspan></text>
    <text
       xml:space="preserve"
       style="font-size:40px;font-style:normal;font-variant:normal;font-weight:normal;font-stretch:normal;text-align:center;line-height:100%;writing-mode:lr-tb;text-anchor:middle;fill:blue;fill-opacity:1;stroke:none;font-family:Serif"
       x="404.15106"
       y="923.06842"
       id="text9367"
       sodipodi:linespacing="100%"><tspan
         sodipodi:role="line"
         id="tspan9369"
         x="404.15106"
         y="923.06842">pdf2ps</tspan></text>
    <text
       xml:space="preserve"
       style="font-size:40px;font-style:normal;font-variant:normal;font-weight:normal;font-stretch:normal;text-align:center;line-height:100%;writing-mode:lr-tb;text-anchor:middle;fill:blue;fill-opacity:1;stroke:none;font-family:Serif"
       x="709.89795"
       y="1009.1351"
       id="text9371"
       sodipodi:linespacing="100%"><tspan
         sodipodi:role="line"
         id="tspan9373"
         x="709.89795"
         y="1009.1351">dvipdfm</tspan></text>
    <text
       xml:space="preserve"
       style="font-size:40px;font-style:normal;font-variant:normal;font-weight:bold;font-stretch:normal;text-align:center;line-height:125%;writing-mode:lr-tb;text-anchor:middle;fill:black;fill-opacity:1;stroke:none;font-family:Serif"
       x="103.03556"
       y="492.74207"
       id="text1362"
       sodipodi:linespacing="125%"><tspan
         sodipodi:role="line"
         id="tspan1364"
         x="103.03556"
         y="492.74207" /></text>
    <text
       xml:space="preserve"
       style="font-size:24px;font-style:normal;font-variant:normal;font-weight:normal;font-stretch:normal;text-align:center;line-height:125%;writing-mode:lr-tb;text-anchor:middle;fill:#008b00;fill-opacity:1;stroke:none;font-family:Serif"
       x="72.311089"
       y="953.6839"
       id="text1366"
       sodipodi:linespacing="125%"><tspan
         sodipodi:role="line"
         id="tspan1368"
         x="72.311089"
         y="953.6839"
         style="font-size:28px;font-style:normal;font-variant:normal;font-weight:normal;font-stretch:normal;text-align:center;line-height:100%;writing-mode:lr-tb;text-anchor:middle;fill:#008b00;fill-opacity:1;font-family:Serif">(pdf,</tspan><tspan
         sodipodi:role="line"
         x="76.76812"
         y="981.6839"
         style="font-size:28px;font-style:normal;font-variant:normal;font-weight:normal;font-stretch:normal;text-align:center;line-height:100%;writing-mode:lr-tb;text-anchor:middle;fill:#008b00;fill-opacity:1;font-family:Serif"
         id="tspan8307">  png, </tspan><tspan
         sodipodi:role="line"
         x="72.311089"
         y="1009.6839"
         style="font-size:28px;font-style:normal;font-variant:normal;font-weight:normal;font-stretch:normal;text-align:center;line-height:100%;writing-mode:lr-tb;text-anchor:middle;fill:#008b00;fill-opacity:1;font-family:Serif"
         id="tspan8309"> jpg)</tspan></text>
    <text
       xml:space="preserve"
       style="font-size:28px;font-style:normal;font-variant:normal;font-weight:normal;font-stretch:normal;text-align:center;line-height:100%;writing-mode:lr-tb;text-anchor:middle;fill:#008b00;fill-opacity:1;stroke:none;font-family:Serif"
       x="1315.1097"
       y="955.20428"
       id="text1370"
       sodipodi:linespacing="100%"><tspan
         sodipodi:role="line"
         id="tspan1372"
         x="1315.1097"
         y="955.20428">(eps)</tspan></text>
    <text
       xml:space="preserve"
       style="font-size:24px;font-style:normal;font-variant:normal;font-weight:normal;font-stretch:normal;line-height:125%;letter-spacing:0px;word-spacing:0px;fill:black;fill-opacity:1;stroke:none;font-family:Times New Roman;-inkscape-font-specification:'Times New Roman,'"
       x="747.22125"
       y="621.72241"
       id="text8335"
       sodipodi:linespacing="125%"><tspan
         sodipodi:role="line"
         x="747.22125"
         y="621.72241"
         id="tspan8337"><tspan
           x="747.22125"
           y="621.72241"
           style="font-size:28px;font-family:Serif;-inkscape-font-specification:Serif"
           id="tspan8339">Source formats</tspan></tspan></text>
    <text
       xml:space="preserve"
       style="font-size:24px;font-style:normal;font-variant:normal;font-weight:normal;font-stretch:normal;line-height:125%;letter-spacing:0px;word-spacing:0px;fill:black;fill-opacity:1;stroke:none;font-family:Times New Roman;-inkscape-font-specification:'Times New Roman,'"
       x="747.72028"
       y="776.83533"
       id="text8329"
       sodipodi:linespacing="125%"><tspan
         sodipodi:role="line"
         x="747.72028"
         y="776.83533"
         id="tspan8331"><tspan
           x="747.72028"
           y="776.83533"
           style="font-size:28px;font-family:Serif;-inkscape-font-specification:Serif"
           id="tspan8333">Output formats</tspan></tspan></text>
    <text
       xml:space="preserve"
       style="font-size:6px;font-style:normal;font-variant:normal;font-weight:normal;font-stretch:normal;line-height:125%;letter-spacing:0px;word-spacing:0px;fill:black;fill-opacity:1;stroke:none;font-family:Ubuntu;-inkscape-font-specification:Ubuntu"
       x="-332.47894"
       y="65.582375"
       id="text8311"
       sodipodi:linespacing="125%"
       transform="translate(-2.21875,32.96875)"><tspan
         sodipodi:role="line"
         id="tspan8313"
         x="-332.47894"
         y="65.582375">s</tspan></text>
  </g>
</svg>
